<svg xmlns="http://www.w3.org/2000/svg" width="330" height="108" fill="none">
  <path fill="#97E3F8" fill-opacity=".5" d="M72 20H20v6h52v-6Zm0 62H20v6h52v-6ZM0 40h6v28H0V40Zm92 0h-6v28h6V40Z"/>
  <path fill="#0068F1" d="M8 20h14v6H8a2 2 0 0 0-2 2v14H0V28a8 8 0 0 1 8-8Zm62 0v6h14a2 2 0 0 1 2 2v14h6V28a8 8 0 0 0-8-8H70Zm14 62H70v6h14a8 8 0 0 0 8-8V66h-6v14a2 2 0 0 1-2 2ZM6 80V66H0v14a8 8 0 0 0 8 8h14v-6H8a2 2 0 0 1-2-2Zm86.608 10.229 4.578 16.787c.306 1.121 1.807 1.328 2.405.332L104 100l7.348-4.409c.996-.598.789-2.099-.332-2.405l-16.787-4.578a1.32 1.32 0 0 0-1.621 1.62ZM35.194 42.324l-.166-.155c-1.156-1.097-2.051-2.365-2.591-3.864-.152-.42-.266-.847-.246-1.299.002-.043.002-.086.005-.129.04-.583.436-.877 1.014-.74.181.047.358.114.525.2.631.312 1.146.774 1.619 1.281a10.17 10.17 0 0 1 1.99 3.025.75.75 0 0 0 .036.078c.007.011.02.019.051.047a16.31 16.31 0 0 1 7.425-2.25c-.017-.079-.026-.14-.041-.199a10.051 10.051 0 0 1-.243-3.343 7.523 7.523 0 0 1 .407-1.97c.108-.334.278-.646.502-.92.084-.097.182-.183.29-.255a.65.65 0 0 1 .736-.005c.229.153.413.363.535.609.226.417.388.864.482 1.328.213.98.279 1.986.194 2.986a8.549 8.549 0 0 1-.32 1.801c.653.119 1.303.21 1.938.36.635.146 1.26.327 1.873.543.619.224 1.224.483 1.812.775.582.287 1.135.628 1.715.954.02-.04.047-.086.065-.136a9.832 9.832 0 0 1 3.015-4.23 3.47 3.47 0 0 1 1.083-.623c.11-.038.222-.064.337-.077.574-.065.815.292.858.718.031.314.007.63-.071.936a7.904 7.904 0 0 1-.984 2.234c-.622.993-1.36 1.887-2.299 2.609-.028.02-.052.047-.099.09a16.144 16.144 0 0 1 2.437 2.793c-.05.013-.103.022-.155.027-.97.002-1.942-.001-2.913.004a.372.372 0 0 1-.29-.153 13.606 13.606 0 0 0-8.08-4.211 13.308 13.308 0 0 0-2.775-.106 13.516 13.516 0 0 0-7.563 2.878 12.77 12.77 0 0 0-1.556 1.434.433.433 0 0 1-.354.159c-.927-.007-1.855-.004-2.782-.004h-.197c.056-.217.626-.99 1.272-1.678.481-.514.99-1.002 1.509-1.522Zm23.642 20.518a16.053 16.053 0 0 1-2.197 2.458l.17.14a9.8 9.8 0 0 1 3.087 4.356c.16.416.23.86.202 1.304a1.335 1.335 0 0 1-.069.335.653.653 0 0 1-.286.367.667.667 0 0 1-.461.087 2.053 2.053 0 0 1-.62-.181 4.704 4.704 0 0 1-.841-.527 9.736 9.736 0 0 1-3.018-4.225l-.067-.17c-.731.477-1.497.9-2.292 1.267-.79.356-1.608.65-2.445.88-.85.228-1.718.39-2.594.487.016.076.024.137.04.196.278 1.076.37 2.19.273 3.297a7.228 7.228 0 0 1-.406 2.034c-.11.27-.238.535-.381.79-.059.1-.13.19-.215.27-.364.371-.8.374-1.155-.007a2.472 2.472 0 0 1-.358-.508c-.282-.523-.427-1.091-.531-1.67a10.436 10.436 0 0 1-.125-2.395 8.452 8.452 0 0 1 .265-1.736c.013-.048.024-.097.034-.145.002-.013-.006-.027-.016-.067a16.287 16.287 0 0 1-7.42-2.262c-.037.083-.07.152-.1.222a10.006 10.006 0 0 1-2.832 3.747c-.326.275-.7.488-1.104.63-.19.075-.396.097-.597.063a.657.657 0 0 1-.495-.406c-.13-.31-.107-.632-.063-.951a4.97 4.97 0 0 1 .395-1.29 10.178 10.178 0 0 1 2.43-3.416c.041-.04.085-.078.126-.118a.333.333 0 0 0 .033-.06 16.26 16.26 0 0 1-2.608-2.833c.09-.007.15-.016.21-.016.964 0 1.928.002 2.89-.004a.436.436 0 0 1 .34.147 13.457 13.457 0 0 0 3.611 2.614 12.945 12.945 0 0 0 4.555 1.336c4.318.415 8.032-.878 11.142-3.877a.701.701 0 0 1 .55-.221c.898.01 1.796.004 2.694.004h.232l.017.054Zm-4.013-13.585c.255 0 .5.017.743-.005.275-.024.471.073.671.255 1.156 1.052 2.324 2.09 3.488 3.133l.193.17c.07-.06.136-.113.199-.17 1.2-1.078 2.398-2.157 3.596-3.237a.501.501 0 0 1 .385-.15c.295.012.59.004.902.004v9.533c-.158.046-2.28.055-2.533.006v-4.828l-.049-.023-2.496 2.247-2.516-2.238-.048.018c-.002.403 0 .806-.001 1.209v3.632h-2.513c-.047-.16-.07-9.017-.021-9.556Zm-23.193.011h2.498c.05.158.06 9.316.009 9.547h-2.5c-.015-.606-.005-1.21-.007-1.815-.002-.599 0-1.198 0-1.813h-3.096v3.596c-.19.055-2.322.06-2.534.01V49.27h2.523v3.365c.18.051 2.834.06 3.104.011l.003-.82v-2.557Zm5.492 9.544v-9.516c.148-.048 5.64-.066 5.999-.018v2.028c-.08.005-.164.016-.247.016-.978.002-1.956.002-2.934.001h-.272V52.9h3.056V55h-3.028c-.051.18-.065 1.43-.024 1.777.078.005.16.015.244.016h3.206v2.02h-6Zm8.862.004c-.046-.256-.037-9.374.009-9.547h2.489v7.035c.107.006.192.014.276.014h3.222v2.498h-5.996ZM311.948 44.4l6.3 16.2h2.628l-1.188 3.6h-4.356l-7.74-19.8h4.356Zm8.82 24.696c-.528 1.488-1.296 2.64-2.304 3.456a5.34 5.34 0 0 1-3.456 1.224c-1.92 0-3.444-.516-4.572-1.548-1.128-1.008-1.764-2.46-1.908-4.356h3.6c.36.84.732 1.428 1.116 1.764.408.36.924.54 1.548.54.576 0 1.044-.18 1.404-.54.384-.36.744-.948 1.08-1.764l8.172-23.472h4.032l-8.712 24.696Zm-32.58-13.356-7.38-11.34h4.752l5.4 8.28.396 1.044h.36l.396-1.044 5.652-8.28h4.428l-7.452 10.98L301.76 66h-4.824l-4.968-7.488-.396-1.044h-.36l-.396 1.044-5.04 7.488h-4.536l6.948-10.26ZM264.5 66.576c-2.112 0-3.972-.468-5.58-1.404-1.584-.96-2.82-2.292-3.708-3.996-.888-1.728-1.332-3.72-1.332-5.976s.444-4.236 1.332-5.94c.888-1.728 2.124-3.06 3.708-3.996 1.608-.96 3.468-1.44 5.58-1.44s3.96.48 5.544 1.44c1.608.936 2.856 2.268 3.744 3.996.888 1.704 1.332 3.684 1.332 5.94 0 2.256-.444 4.248-1.332 5.976-.888 1.704-2.136 3.036-3.744 3.996-1.584.936-3.432 1.404-5.544 1.404Zm0-3.744c2.064 0 3.684-.684 4.86-2.052 1.2-1.368 1.8-3.228 1.8-5.58s-.6-4.212-1.8-5.58c-1.176-1.368-2.796-2.052-4.86-2.052-2.064 0-3.696.684-4.896 2.052-1.176 1.368-1.764 3.228-1.764 5.58s.588 4.212 1.764 5.58c1.2 1.368 2.832 2.052 4.896 2.052ZM236.528 44.4v1.656h1.08c.456-.72 1.092-1.272 1.908-1.656.816-.384 1.74-.576 2.772-.576 1.92 0 3.432.636 4.536 1.908 1.104 1.248 1.656 2.964 1.656 5.148v2.88h-4.104v-2.304c0-1.272-.288-2.232-.864-2.88-.576-.672-1.416-1.008-2.52-1.008-1.392 0-2.436.588-3.132 1.764-.696 1.152-1.044 2.868-1.044 5.148v7.776h7.488V66H228.32v-3.744h4.536V48.144H227.6V44.4h8.928Zm-35.568 0h3.96v2.16H206c.504-.816 1.296-1.476 2.376-1.98 1.104-.504 2.304-.756 3.6-.756 1.92 0 3.612.48 5.076 1.44 1.488.936 2.628 2.268 3.42 3.996.816 1.704 1.224 3.684 1.224 5.94 0 2.256-.408 4.248-1.224 5.976-.792 1.704-1.932 3.036-3.42 3.996-1.464.936-3.156 1.404-5.076 1.404-1.296 0-2.496-.252-3.6-.756-1.08-.504-1.872-1.164-2.376-1.98h-1.08v9.36h-3.96V44.4Zm10.296 18.432c2.016 0 3.6-.684 4.752-2.052 1.152-1.368 1.728-3.228 1.728-5.58s-.576-4.212-1.728-5.58c-1.152-1.368-2.736-2.052-4.752-2.052-2.016 0-3.6.684-4.752 2.052-1.152 1.368-1.728 3.228-1.728 5.58s.576 4.212 1.728 5.58c1.152 1.368 2.736 2.052 4.752 2.052Zm-18 2.448c0 1.704-.408 3.192-1.224 4.464-.816 1.272-1.992 2.256-3.528 2.952-1.536.72-3.336 1.08-5.4 1.08-1.92 0-3.636-.3-5.148-.9-1.488-.576-2.664-1.404-3.528-2.484-.864-1.056-1.332-2.28-1.404-3.672h3.888c.408 1.08 1.152 1.92 2.232 2.52 1.104.624 2.424.936 3.96.936 1.944 0 3.456-.468 4.536-1.404 1.104-.912 1.656-2.196 1.656-3.852v-2.304h-1.08c-.528.72-1.32 1.296-2.376 1.728a8.49 8.49 0 0 1-3.312.648c-1.872 0-3.528-.432-4.968-1.296-1.44-.888-2.556-2.124-3.348-3.708-.792-1.584-1.188-3.42-1.188-5.508 0-2.112.396-3.972 1.188-5.58.792-1.608 1.908-2.856 3.348-3.744 1.44-.888 3.096-1.332 4.968-1.332 1.2 0 2.316.228 3.348.684 1.056.456 1.836 1.068 2.34 1.836h1.08V44.4h3.96v20.88Zm-16.272-10.8c0 2.136.552 3.828 1.656 5.076 1.128 1.224 2.664 1.836 4.608 1.836 1.944 0 3.468-.612 4.572-1.836 1.128-1.248 1.692-2.94 1.692-5.076 0-2.136-.564-3.816-1.692-5.04-1.104-1.248-2.628-1.872-4.572-1.872s-3.48.624-4.608 1.872c-1.104 1.224-1.656 2.904-1.656 5.04ZM149.84 44.4v1.728h2.844l-2.34 1.44c.072-1.152.456-2.064 1.152-2.736.696-.672 1.608-1.008 2.736-1.008 1.032 0 1.908.396 2.628 1.188.72.768 1.164 1.788 1.332 3.06l-2.34-1.728h4.608l-2.16 1.224c.072-1.128.492-2.028 1.26-2.7.792-.696 1.776-1.044 2.952-1.044 1.416 0 2.556.564 3.42 1.692.888 1.128 1.332 2.604 1.332 4.428V66h-3.96V51.6c0-1.104-.204-1.932-.612-2.484-.384-.552-.972-.828-1.764-.828s-1.392.276-1.8.828c-.384.552-.576 1.38-.576 2.484V66h-3.96V51.6c0-1.104-.204-1.932-.612-2.484-.384-.552-.972-.828-1.764-.828s-1.392.276-1.8.828c-.384.552-.576 1.38-.576 2.484V66h-3.96V44.4h3.96Zm-17.1 0v17.856h7.2V66h-18.36v-3.744h7.2V48.144h-7.2V44.4h11.16Zm-2.268-3.312c-.984 0-1.764-.24-2.34-.72-.552-.504-.828-1.2-.828-2.088 0-.888.276-1.572.828-2.052.576-.504 1.356-.756 2.34-.756.984 0 1.752.252 2.304.756.576.48.864 1.164.864 2.052 0 .888-.288 1.584-.864 2.088-.552.48-1.32.72-2.304.72Z"/>
</svg>
