<svg xmlns="http://www.w3.org/2000/svg" width="266" height="100" fill="none">
  <g clip-path="url(#a)">
    <path fill="#fff" d="M94.056 42.55v2.915h5.803v11.648h-5.803v2.915h14.733v-2.915h-5.69V42.549h-9.043Zm4.916-4.367c0 1.423.83 2.423 2.451 2.423 1.619 0 2.45-1 2.45-2.423 0-1.422-.831-2.422-2.45-2.422-1.62 0-2.451 1-2.451 2.422Zm14.479 4.366v17.465h3.239V48.746c0-2.507.859-3.633 2.775-3.633 1.915 0 2.774 1.14 2.774 3.633v11.268h3.24V48.746c0-2.535.859-3.633 2.775-3.633 1.915 0 2.774 1.112 2.774 3.633v11.268h3.24V47.845c0-3.465-2.099-5.76-5.24-5.76-1.648 0-3.155.732-4.014 1.915h-.591c-.86-1.225-2.155-1.916-3.747-1.916-1.648 0-2.887.578-3.563 1.634h-.409V42.55h-3.253Zm42.704 16.902V42.549h-3.24v1.578h-.887c-.831-1.226-2.676-2.043-4.662-2.043-4.662 0-7.774 3.437-7.774 8.62 0 5.099 3.126 8.507 7.774 8.507 1.916 0 3.775-.76 4.662-1.915h.887v1.859c0 2.676-1.887 4.253-5.07 4.253-2.535 0-4.422-1.042-5.07-2.788h-3.183c.183 3.436 3.478 5.704 8.253 5.704 5.155-.014 8.31-2.746 8.31-6.873Zm-13.324-8.747c0-3.465 1.944-5.591 5.127-5.591s5.127 2.126 5.127 5.591c0 3.465-1.944 5.592-5.127 5.592s-5.127-2.127-5.127-5.592Zm28.648-8.62c-2.127 0-4.071.874-4.887 2.212h-.888v-1.747h-3.239v23.296h3.239v-7.577h.888c.816 1.338 2.774 2.21 4.887 2.21 4.775 0 7.958-3.675 7.958-9.196s-3.183-9.197-7.958-9.197Zm-5.887 9.212c0-3.817 2-6.17 5.309-6.17 3.296 0 5.31 2.353 5.31 6.17 0 3.817-2 6.169-5.31 6.169-3.309 0-5.309-2.366-5.309-6.17Zm18.845-8.747v2.916h4.14v11.648h-4.14v2.915h13.746v-2.915h-6.366v-6.409c0-3.704 1.155-5.591 3.422-5.591 1.831 0 2.775 1.07 2.775 3.14v2.057h3.352v-2.521c0-3.55-1.915-5.705-5.07-5.705-1.676 0-3.071.634-3.831 1.803h-.888V42.55h-7.14Zm30.042 17.944c5.211 0 8.69-3.676 8.69-9.197 0-5.521-3.479-9.197-8.69-9.197-5.211 0-8.69 3.676-8.69 9.197 0 5.52 3.465 9.197 8.69 9.197Zm-5.451-9.197c0-3.817 2.071-6.17 5.451-6.17 3.394 0 5.451 2.353 5.451 6.17 0 3.817-2.057 6.169-5.451 6.169-3.394 0-5.451-2.366-5.451-6.17ZM227 60.028h3.718l4.127-6.056.324-.845h.296l.324.845 4.07 6.056h3.944l-5.747-8.591 6.099-8.888h-3.62l-4.62 6.705-.323.845h-.296l-.324-.845-4.423-6.705h-3.887l6.042 9.17-5.704 8.31Zm20.69-17.479 6.338 16.014h2.648l-1.056 2.972c-.535 1.31-1.057 1.86-2.028 1.86-1.057 0-1.62-.55-2.184-1.86h-2.943c.239 3.056 2.155 4.775 5.31 4.775 2.126 0 3.859-1.395 4.718-3.789l7.127-19.972h-3.296l-4.62 13.099h-1.267l-5.155-13.099h-3.592Z"/>
    <path fill="url(#b)" d="M78.493 32.732V22.535H68.31v2.831H44.535v-2.83H34.352v2.83H10.577v-2.83H.394v10.196h2.831v12.465H.395v10.197h2.83V67.86H.395v10.197h10.182v-2.845h23.775v2.831h10.183v-2.83H68.31v2.83h10.183V67.845h-2.831V55.38h2.83V45.183h-2.83V32.718h2.83v.014Zm-41.873-7.93h5.662v5.663H36.62v-5.662ZM2.662 30.466v-5.662h5.662v5.662H2.662Zm0 22.662v-5.662h5.662v5.662H2.662Zm5.662 22.648H2.662v-5.662h5.662v5.662Zm33.958 0H36.62v-5.662h5.662v5.662Zm26.028-5.099H44.535v-2.83H34.352v2.83H10.577v-2.83h-2.83V55.38h2.83V45.183h-2.83V32.718h2.83v-2.83h23.775v2.83h10.183v-2.83H68.31v2.83h2.83v12.465h-2.83V55.38h2.83v12.465h-2.83v2.831Zm7.93-.563v5.662h-5.663v-5.662h5.662Zm0-22.648v5.662h-5.663v-5.662h5.662Zm-5.663-17v-5.662h5.662v5.662h-5.662Z"/>
    <path fill="#1960C4" d="m31.982 41.903-.108-.1c-.752-.714-1.334-1.54-1.686-2.515-.098-.272-.173-.55-.16-.845l.004-.084c.026-.379.283-.57.659-.48.118.03.233.073.341.128.411.204.746.505 1.054.834a6.614 6.614 0 0 1 1.318 2.019c.005.007.014.012.034.03a10.612 10.612 0 0 1 4.83-1.463c-.01-.052-.017-.091-.026-.13a6.542 6.542 0 0 1-.159-2.175c.03-.437.12-.868.265-1.281.07-.218.181-.421.327-.599a.93.93 0 0 1 .189-.166.423.423 0 0 1 .478-.003c.15.1.27.236.349.396.147.271.252.562.313.864a6.54 6.54 0 0 1 .127 1.943c-.027.396-.097.79-.208 1.172.424.077.847.137 1.26.234.413.095.82.213 1.22.353a11.3 11.3 0 0 1 1.178.505c.378.186.738.408 1.116.62.012-.025.03-.056.042-.088a6.398 6.398 0 0 1 1.962-2.753 2.26 2.26 0 0 1 .705-.405c.07-.025.144-.041.219-.05.373-.042.53.19.558.467.02.204.005.41-.046.61a5.14 5.14 0 0 1-.64 1.453c-.405.646-.886 1.227-1.496 1.697-.018.014-.034.03-.065.058.598.544 1.13 1.154 1.586 1.818a.663.663 0 0 1-.1.018c-.633 0-1.264-.001-1.896.002a.243.243 0 0 1-.19-.1 8.852 8.852 0 0 0-5.256-2.74 8.658 8.658 0 0 0-1.806-.068 8.794 8.794 0 0 0-4.92 1.873 8.31 8.31 0 0 0-1.013.932.28.28 0 0 1-.23.103c-.604-.004-1.207-.002-1.81-.002h-.129c.037-.141.408-.643.828-1.092.313-.334.645-.651.982-.99ZM47.364 55.253c-.42.58-.898 1.116-1.43 1.599l.112.091a6.376 6.376 0 0 1 2.008 2.834c.104.271.15.56.131.85a.868.868 0 0 1-.044.217.425.425 0 0 1-.186.239.435.435 0 0 1-.3.056 1.338 1.338 0 0 1-.404-.118 3.059 3.059 0 0 1-.547-.342 6.336 6.336 0 0 1-1.964-2.75l-.043-.11c-.476.31-.974.586-1.491.825a10.94 10.94 0 0 1-1.591.572c-.554.148-1.118.254-1.688.317.01.05.016.089.026.127.181.7.24 1.426.177 2.146a4.704 4.704 0 0 1-.263 1.323 4.571 4.571 0 0 1-.249.515.792.792 0 0 1-.14.174c-.236.242-.52.244-.751-.004-.091-.1-.17-.211-.233-.33-.183-.34-.278-.71-.345-1.087a6.796 6.796 0 0 1-.081-1.558c.018-.382.075-.76.172-1.13a1.33 1.33 0 0 0 .022-.095c.001-.008-.004-.017-.01-.043a10.597 10.597 0 0 1-4.828-1.471l-.066.144a6.51 6.51 0 0 1-1.842 2.438 2.28 2.28 0 0 1-.718.41.729.729 0 0 1-.389.04.428.428 0 0 1-.322-.263c-.084-.202-.07-.411-.04-.62.046-.29.133-.571.256-.838a6.624 6.624 0 0 1 1.58-2.223c.028-.026.056-.05.083-.077a.225.225 0 0 0 .022-.038 10.576 10.576 0 0 1-1.697-1.844c.058-.005.098-.01.137-.01.627-.001 1.254.001 1.88-.003a.284.284 0 0 1 .221.096 8.755 8.755 0 0 0 2.35 1.7c.924.47 1.929.765 2.963.87 2.81.27 5.226-.572 7.25-2.523a.456.456 0 0 1 .357-.144c.585.007 1.17.003 1.754.003h.15l.011.035ZM44.753 46.414c.166 0 .326.011.484-.003.178-.016.306.047.437.166.752.684 1.511 1.36 2.269 2.038l.126.11c.045-.038.088-.073.129-.11l2.34-2.106a.326.326 0 0 1 .25-.097c.192.008.385.002.587.002v6.203c-.103.03-1.483.035-1.648.003v-3.14l-.032-.016-1.624 1.462-1.637-1.456-.031.012c-.002.262 0 .524 0 .786v2.364h-1.636c-.03-.105-.045-5.867-.014-6.218ZM29.663 46.421h1.625c.033.103.04 6.062.006 6.212h-1.627c-.009-.395-.003-.788-.004-1.18v-1.18h-2.015v2.339c-.122.036-1.51.04-1.648.007v-6.197h1.642v2.189c.117.034 1.844.04 2.02.008V46.42ZM33.237 52.63v-6.19c.096-.032 3.67-.044 3.903-.012v1.319c-.053.004-.107.01-.16.01-.637.002-1.274.002-1.91.001h-.177v1.027h1.988v1.365h-1.97c-.033.117-.042.93-.015 1.156.05.004.104.01.158.01h2.086v1.315h-3.903ZM39.002 52.633c-.03-.166-.023-6.099.006-6.211h1.62v4.577c.07.004.124.01.18.01h2.096v1.624h-3.902Z"/>
    <path fill="#fff" fill-rule="evenodd" d="M81.437 91.746h10.957L73.606 72.945l7.83 18.802Zm-7.831-18.802v26.62l7.817-7.832" clip-rule="evenodd"/>
  </g>
  <defs>
    <linearGradient id="b" x1="39.445" x2="39.445" y1="78.046" y2="22.535" gradientUnits="userSpaceOnUse">
      <stop stop-color="#1D40B2"/>
      <stop offset="1" stop-color="#1680D6"/>
    </linearGradient>
    <clipPath id="a">
      <path fill="#fff" d="M0 0h266v100H0z"/>
    </clipPath>
  </defs>
</svg>
